# AST/ASF file generated using VICON BodyLanguage
# -----------------------------------------------
:version 1.10
:name VICON
:units
  mass 1.0
  length 0.45
  angle deg
:documentation
   .ast/.asf automatically generated from VICON data using
   VICON BodyBuilder and BodyLanguage model FoxedUp or BRILLIANT.MOD
:root
   order TX TY TZ RX RY RZ
   axis XYZ
   position 0 0 0  
   orientation 0 0 0 
:bonedata
  begin
     id 1 
     name lhipjoint
     direction 0.627457 -0.725269 0.283342 
     length 2.53237 
     axis 0 0 0  XYZ
  end
  begin
     id 2 
     name lfemur
     direction 0.34202 -0.939693 0  
     length 7.32496  
     axis 0 0 20  XYZ
    dof rx ry rz
    limits (-160.0 20.0)
           (-70.0 70.0)
           (-60.0 70.0)
  end
  begin
     id 3 
     name ltibia
     direction 0.34202 -0.939693 0   
     length 7.69674   
     axis 0 0 20   XYZ
    dof rx
    limits (-10.0 170.0)
  end
  begin
     id 4 
     name lfoot
     direction 0.127289 -0.349722 0.928166   
     length 1.8612   
     axis -90 7.62852e-016 20   XYZ
    dof rx rz
    limits (-45.0 90.0)
           (-70.0 20.0)
  end
  begin
     id 5 
     name ltoes
     direction 1.53561e-011 -4.21864e-011 1   
     length 0.925608   
     axis -90 7.62852e-016 20   XYZ
    dof rx
    limits (-90.0 20.0)
  end
  begin
     id 6 
     name rhipjoint
     direction -0.609094 -0.738725 0.288599   
     length 2.48624  
     axis 0 0 0  XYZ 
  end
  begin
     id 7 
     name rfemur
     direction -0.34202 -0.939693 0   
     length 7.44259   
     axis 0 0 -20   XYZ
    dof rx ry rz
    limits (-160.0 20.0)
           (-70.0 70.0)
           (-70.0 60.0)
  end
  begin
     id 8 
     name rtibia
     direction -0.34202 -0.939693 0   
     length 7.7781   
     axis 0 0 -20   XYZ
    dof rx
    limits (-10.0 170.0)
 end
 begin
     id 9 
     name rfoot
     direction -0.107015 -0.294021 0.949789   
     length 2.14741  
     axis -90 -7.62852e-016 -20   XYZ
    dof rx rz
    limits (-45.0 90.0)
           (-20.0 70.0)
  end
  begin
     id 10 
     name rtoes
     direction -1.53497e-011 -4.21924e-011 1   
     length 1.0706   
     axis -90 -7.62852e-016 -20   XYZ
    dof rx
    limits (-90.0 20.0)
  end
  begin
     id 11 
     name lowerback
     direction -0.0142066 0.998112 -0.0597545   
     length 1.86627   
     axis 0 0 0   XYZ
    dof rx ry rz
    limits (-20.0 45.0)
           (-30.0 30.0)
           (-30.0 30.0)
  end
  begin
     id 12 
     name upperback
     direction 0.00547294 0.999744 0.0219437   
     length 1.86272   
     axis 0 0 0   XYZ
    dof rx ry rz
    limits (-20.0 45.0)
           (-30.0 30.0)
           (-30.0 30.0)
  end
  begin
     id 13 
     name thorax
     direction 0.0116162 0.998704 0.0495538   
     length 1.8703   
     axis 0 0 0   XYZ
    dof rx ry rz
    limits (-20.0 45.0)
           (-30.0 30.0)
           (-30.0 30.0)
  end
  begin
     id 14 
     name lowerneck
     direction -0.0106574 0.998739 0.0490586   
     length 1.8074   
     axis 0 0 0   XYZ
    dof rx ry rz
    limits (-20.0 45.0)
           (-30.0 30.0)
           (-30.0 30.0)
  end
  begin
     id 15 
     name upperneck
     direction 0.030527 0.976587 -0.212944   
     length 1.80681   
     axis 0 0 0   XYZ
    dof rx ry rz
    limits (-20.0 45.0)
           (-30.0 30.0)
           (-30.0 30.0)
  end
  begin
     id 16
     name head
     direction 0.00869225 0.997035 -0.0764531  
     length 1.8313  
     axis 0 0 0   XYZ
    dof rx ry rz
    limits (-20.0 45.0)
           (-30.0 30.0)
           (-30.0 30.0)
  end
  begin
     id 17 
     name lclavicle
     direction 0.915958 0.399447 0.0382386  
     length 3.78965  
     axis 0 0 0   XYZ
    dof ry rz
    limits (-20.0 10.0)
           (0.0 20.0)
  end
  begin
     id 18 
     name lhumerus
     direction 1 -4.48967e-011 3.19303e-027   
     length 4.78095   
     axis -180 -30 -90   XYZ
    dof rx ry rz
    limits (-60.0 90.0)
           (-90.0 90.0)
           (-90.0 90.0)
  end
  begin
     id 19
     name lradius
     direction 1 -4.48967e-011 -3.77974e-027   
     length 3.58615   
     axis -180 -30 -90   XYZ
    dof rx
    limits (-10.0 170.0)
  end
  begin
     id 20
     name lwrist
     direction 1 -4.48927e-011 1.2807e-027   
     length 1.79307   
     axis 1.91374e-015 90 90   XYZ
    dof ry
    limits (-180.0 0.0)
 end
  begin
     id 21 
     name lhand
     direction 1 -4.49036e-011 2.5614e-027   
     length 0.659812   
     axis -1.63439e-015 90 90   XYZ
    dof rx rz
    limits (-90.0 90.0)
           (-45.0 45.0)
  end
  begin
     id 22 
     name lfingers
     direction 1 -4.49052e-011 5.1228e-027   
     length 0.531957   
     axis -3.26879e-015 90 90   XYZ
    dof rx
    limits (0.0 90.0)
  end
  begin
     id 23
     name lthumb
     direction 0.707107 -6.35012e-011 0.707107   
     length 0.763787   
     axis -90 45 2.85299e-015   XYZ
    dof rx rz
    limits (-45.0 45.0)
           (-45.0 45.0)
  end
  begin
     id 24 
     name rclavicle
     direction -0.895351 0.435135 0.0948887   
     length 3.70497  
     axis 0 0 0   XYZ 
    dof ry rz
    limits (-10.0 20.0)
           (-20.0 0.0)
  end
  begin
     id 25 
     name rhumerus
     direction -1 -4.48971e-011 2.38946e-027  
     length 4.48913   
     axis -180 30 90   XYZ
    dof rx ry rz
    limits (-90.0 60.0)
           (-90.0 90.0)
           (-90.0 90.0)
  end
  begin
     id 26 
     name rradius
     direction -1 -4.4895e-011 4.38668e-027   
     length 3.7051   
     axis -180 30 90   XYZ
    dof rx
    limits (-10.0 170.0)
  end
  begin
     id 27 
     name rwrist
     direction -1 -4.49007e-011 1.2807e-027   
     length 1.85255   
     axis 1.91374e-015 -90 -90   XYZ
    dof ry
    limits (-180.0 0.0)
  end
  begin
     id 28
     name rhand
     direction -1 -4.48851e-011 2.5614e-027   
     length 0.449136   
     axis -1.63439e-015 -90 -90   XYZ
    dof rx rz
    limits (-90.0 90.0)
           (-45.0 45.0)
  end
  begin
     id 29
     name rfingers
     direction -1 -4.49128e-011 5.1228e-027   
     length 0.362105   
     axis -3.26879e-015 -90 -90   XYZ
    dof rx
    limits (0.0 90.0)
  end
  begin
     id 30
     name rthumb
     direction -0.707107 -6.34851e-011 0.707107   
     length 0.519912   
     axis -90 -45 -2.85299e-015   XYZ
    dof rx rz
    limits (-45.0 45.0)
           (-45.0 45.0)
  end
:hierarchy
  begin
    root lhipjoint rhipjoint lowerback
    lhipjoint lfemur
    lfemur ltibia
    ltibia lfoot
    lfoot ltoes
    rhipjoint rfemur
    rfemur rtibia
    rtibia rfoot
    rfoot rtoes
    lowerback upperback
    upperback thorax
    thorax lowerneck lclavicle rclavicle
    lowerneck upperneck
    upperneck head
    lclavicle lhumerus
    lhumerus lradius
    lradius lwrist
    lwrist lhand lthumb
    lhand lfingers
    rclavicle rhumerus
    rhumerus rradius
    rradius rwrist
    rwrist rhand rthumb
    rhand rfingers
  end

#!OML:ASF I:\Actors\actors\Patient Classification 2\Patient 1\Session 1\actor1.ASF
:FULLY-SPECIFIED
:DEGREES
1
root -1.00448 18.157 5.85301 0.279977 -3.70736 -4.54297
lowerback 1.12586 0.395137 2.69278
upperback -0.668219 0.591258 1.57313
thorax -1.30562 0.278523 0.0898202
lowerneck -9.64551 -1.67636 -3.03414
upperneck 22.6529 -2.88594 4.73778
head 8.75765 -1.14129 1.81658
rclavicle -1.23266e-014 -1.55052e-014
rhumerus -45.7828 -5.70491 -85.9886
rradius 40.3761
rwrist 22.5816
rhand -4.67543 -28.0186
rfingers 7.12502
rthumb 21.1052 -56.89
lclavicle -1.23266e-014 -1.55052e-014
lhumerus -41.8169 8.11401 88.487
lradius 34.5342
lwrist -5.51
lhand -8.41596 -30.2688
lfingers 7.12502
lthumb 17.5086 -1.0372
rfemur 0 0 0
rtibia 0
rfoot 0 0
rtoes 0
lfemur 17.9448 -8.37714 -13.22
ltibia -17.6465
lfoot -6.48107 24.6889
ltoes -9.49895
2
root -1.00292 18.1575 5.85346 0.287139 -3.72051 -4.54885
lowerback 1.14886 0.39777 2.70996
upperback -0.687642 0.59658 1.57484
thorax -1.33821 0.28059 0.0816107
lowerneck -9.65963 -1.67665 -3.02806
upperneck 22.6915 -2.88548 4.72306
head 8.77319 -1.14158 1.81088
rclavicle 7.85277e-015 -9.0447e-015
rhumerus -45.7911 -5.69374 -85.9814
rradius 40.3291
rwrist 22.6639
rhand -4.72351 -28.0108
rfingers 7.12502
rthumb 21.059 -56.8873
lclavicle 7.85277e-015 -9.0447e-015
lhumerus -42.3614 7.96953 88.5622
lradius 35.8235
lwrist -5.43584
lhand -8.11802 -29.2764
lfingers 7.12502
lthumb 17.7953 -0.0706173
rfemur 0 0 0
rtibia 0
rfoot 0 0
rtoes 0
lfemur 17.9543 -8.38919 -13.2255
ltibia -17.6615
lfoot -6.44859 24.7231
ltoes -9.63174
3
root -1.00184 18.1578 5.85477 0.295632 -3.71896 -4.53303
lowerback 1.14415 0.400395 2.69471
upperback -0.698331 0.59987 1.56887
thorax -1.34655 0.282199 0.0839407
lowerneck -9.6381 -1.676 -3.01363
upperneck 22.6703 -2.88696 4.7235
head 8.76178 -1.14147 1.80833
rclavicle 7.7759e-015 1.24489e-014
rhumerus -45.8113 -5.68548 -85.9833
rradius 40.3177
rwrist 22.6746
rhand -4.75434 -28.0382
rfingers 7.12502
rthumb 21.0294 -56.918
lclavicle 7.7759e-015 1.24489e-014
lhumerus -43.2508 6.97078 89.0301
lradius 38.2602
lwrist -4.50249
lhand -7.65813 -27.5212
lfingers 7.12502
lthumb 18.2378 1.64379
rfemur 0 0 0
rtibia 0
rfoot 0 0
rtoes 0
lfemur 17.9417 -8.3884 -13.2474
ltibia -17.6504
lfoot -6.44989 24.7239
ltoes -9.67224
4
root -0.999659 18.1574 5.8563 0.295158 -3.69555 -4.51366
lowerback 1.14045 0.394191 2.68081
upperback -0.702391 0.591311 1.5671
thorax -1.3489 0.277998 0.0901047
lowerneck -9.61485 -1.67681 -3.02208
upperneck 22.6347 -2.88877 4.73777
head 8.74564 -1.14217 1.81423
rclavicle 3.29664e-015 -4.22417e-016
rhumerus -45.8417 -5.68154 -85.9654
rradius 40.3233
rwrist 22.7151
rhand -4.68201 -28.0803
rfingers 7.12502
rthumb 21.0989 -56.9524
lclavicle 3.29664e-015 -4.22417e-016
lhumerus -42.6401 7.58198 88.7298
lradius 36.5846
lwrist -5.04872
lhand -7.99922 -28.8415
lfingers 7.12502
lthumb 17.9096 0.35384
rfemur 0 0 0
rtibia 0
rfoot 0 0
rtoes 0
lfemur 17.9313 -8.43403 -13.278
ltibia -17.6382
lfoot -6.48662 24.7325
ltoes -9.57183
5
root -0.997321 18.1567 5.85735 0.277674 -3.67403 -4.49406
lowerback 1.15676 0.379799 2.66797
upperback -0.694028 0.572427 1.57628
thorax -1.35003 0.268767 0.107022
lowerneck -9.64736 -1.67504 -3.06942
upperneck 22.6454 -2.88173 4.75768
head 8.75598 -1.14031 1.82971
rclavicle -5.58228e-015 3.50358e-015
rhumerus -45.8545 -5.61156 -85.9632
rradius 40.3239
rwrist 22.7524
rhand -4.60674 -28.099
rfingers 7.12502
rthumb 21.1712 -56.963
lclavicle -5.58228e-015 3.50358e-015
lhumerus -43.2221 7.17337 88.9204
lradius 38.0138
lwrist -4.55838
lhand -7.63952 -28.4208
lfingers 7.12502
lthumb 18.2557 0.742512
rfemur 0 0 0
rtibia 0
rfoot 0 0
rtoes 0
lfemur 17.9428 -8.50444 -13.3172
ltibia -17.6276
lfoot -6.53186 24.7776
ltoes -9.41837
